<svg width="35" height="27" viewBox="0 0 35 27" fill="none" xmlns="http://www.w3.org/2000/svg">
<mask id="mask0_1_1842" style="mask-type:luminance" maskUnits="userSpaceOnUse" x="0" y="0" width="35" height="27">
<path d="M34.28 0.870117H0.279999V26.8701H34.28V0.870117Z" fill="white"/>
</mask>
<g mask="url(#mask0_1_1842)">
<path d="M25.1257 16.4699C25.1257 15.7521 25.7113 15.1699 26.4334 15.1699C27.1555 15.1699 27.7411 15.7521 27.7411 16.4699C27.7411 17.1878 27.1555 17.7699 26.4334 17.7699C25.7113 17.7699 25.1257 17.1878 25.1257 16.4699Z" fill="#FF2950"/>
<path fill-rule="evenodd" clip-rule="evenodd" d="M0.279999 4.77012C0.279999 2.61622 2.03657 0.870117 4.20308 0.870117H29.0492C30.4936 0.870117 31.6646 2.03412 31.6646 3.47012V11.2701C33.109 11.2701 34.28 12.4341 34.28 13.8701V19.0701C34.28 20.5061 33.109 21.6701 31.6646 21.6701V24.2701C31.6646 25.7061 30.4936 26.8701 29.0492 26.8701H2.89538C1.45105 26.8701 0.279999 25.7061 0.279999 24.2701V4.77012ZM4.20308 3.47012H29.0492V6.07012H4.20308C3.4809 6.07012 2.89538 5.48802 2.89538 4.77012C2.89538 4.05222 3.4809 3.47012 4.20308 3.47012ZM31.6646 19.0701V13.8701H23.8185V19.0701H31.6646ZM29.0492 11.2701H23.8185C22.3741 11.2701 21.2031 12.4341 21.2031 13.8701V19.0701C21.2031 20.5061 22.3741 21.6701 23.8185 21.6701H29.0492V24.2701H2.89538V8.67012H29.0492V11.2701Z" fill="#FF2950"/>
</g>
</svg>
